<svg baseProfile="basic" xmlns="http://www.w3.org/2000/svg" xmlns:xlink="http://www.w3.org/1999/xlink" width="137.775" height="40.764">
  <defs>
    <path id="a" d="M0 0h137.775v40.764H0z"/>
  </defs>
  <clipPath id="b">
    <use xlink:href="#a" overflow="visible"/>
  </clipPath>
  <path clip-path="url(#b)" fill="#afd7e0" d="M59.61 14.939c1.812 0 3.29-1.444 3.29-3.214 0-1.771-1.478-3.216-3.29-3.216s-3.29 1.445-3.29 3.216c0 1.771 1.478 3.214 3.29 3.214"/>
  <path clip-path="url(#b)" fill="#afd7e0" d="M124.657 9.041a3.031 3.031 0 0 0-.816-.941c-.313-.231-.69-.346-1.13-.346-.418 0-.784.115-1.099.346-.313.23-.585.544-.815.941l-10.848 18.02h-4.866c-1.067 0-1.889-.273-2.464-.817a2.673 2.673 0 0 1-.783-1.394l.05-12.652h9.155l2.242-3.986H101.84L101.839 0h-3.804v8.212h-8.699v.017H74.768c-1.13 0-2.134.163-3.013.487-.879.325-1.617.769-2.213 1.334a5.474 5.474 0 0 0-1.35 2.024 7.038 7.038 0 0 0-.455 2.558c0 .942.162 1.81.486 2.605a5.92 5.92 0 0 0 1.381 2.055c.596.576 1.329 1.026 2.197 1.35s1.837.486 2.902.486h10.483c1.067 0 1.889.241 2.463.723.575.481.863 1.224.863 2.228 0 .9-.288 1.622-.863 2.165-.575.544-1.396.817-2.463.817H65.137c-1.067 0-1.888-.273-2.464-.817-.575-.543-.862-1.265-.863-2.165l-.008-5.817v-.62h-.392v-.009H50.742v.001h-.531L39.886 35.209l-8.253-14.006c.057-.54.086-1.086.086-1.641 0-8.735-7.125-15.859-15.86-15.859C7.125 3.704 0 10.828 0 19.563s7.125 15.86 15.859 15.86c6.208 0 11.588-3.607 14.189-8.825l7.736 12.879c.229.398.502.711.815.942.315.229.692.345 1.13.345a1.81 1.81 0 0 0 1.099-.345c.314-.231.586-.544.816-.942l11.08-18.406h5.322v3.169l-.001.121c0 .963.147 1.853.44 2.668a5.762 5.762 0 0 0 1.317 2.118c.586.597 1.325 1.063 2.213 1.397.89.335 1.931.502 3.123.502h20.049c1.192 0 2.234-.167 3.122-.502.89-.335 1.627-.801 2.213-1.397a5.764 5.764 0 0 0 1.318-2.118c.293-.815.439-1.705.439-2.668 0-2.217-.597-3.871-1.789-4.958-1.192-1.088-2.961-1.632-5.304-1.632h-10.45c-.879 0-1.574-.241-2.087-.722-.513-.482-.77-1.162-.77-2.04 0-.879.246-1.565.738-2.056.491-.492 1.208-.737 2.149-.737H91.15v-.018h6.848v10.185c-.012.799-.008 1.642-.008 1.978 0 .128.002.254.008.379v.11h.005c.042.776.185 1.503.427 2.179a5.751 5.751 0 0 0 1.318 2.118c.585.597 1.323 1.063 2.212 1.397.89.335 1.932.502 3.123.502h6.872v-.162h.273l10.326-17.575 10.356 17.575h4.864L124.657 9.041zM27.481 21.079l-.031.214-15.221.028-1.834-3.94H23.61c-.899-3.527-4.13-6.055-7.799-6.055-4.438 0-8.048 3.61-8.048 8.048 0 4.423 3.611 8.033 8.049 8.048l3.936.014 1.907 3.701-2.649.016c-.995.007-1.925.015-3.195.015-6.503 0-11.793-5.29-11.793-11.793 0-6.503 5.29-11.793 11.793-11.793s11.794 5.29 11.794 11.793c0 .565-.042 1.14-.124 1.704"/>
</svg>